<?xml version="1.0" encoding="UTF-8" standalone="no"?>
<svg width="512" height="128" viewBox="0 0 512 128" xmlns="http://www.w3.org/2000/svg">
    <g transform="translate(100, 26) scale(1.4)">
        <g transform="translate(1.299)">
            <g transform="translate(0,3.597)">
                <path class="a" d="m 14.683,32.525 v 6.036 h 0.192 a 13.416,13.416 0 0 1 5.461,-5.6 A 16.158,16.158 0 0 1 28,31.183 q 6.323,0 9.724,3.449 3.401,3.449 3.4,11.209 V 84.068 H 27.9 V 48.524 q 0,-4.024 -1.341,-5.6 a 5.361,5.361 0 0 0 -4.312,-1.581 q -6.995,0 -6.994,8.527 v 34.2 H 2.037 V 32.525 Z" transform="translate(-2.037,-14.896)" fill="#728e9b"/>
                <rect class="a" width="13.222" height="11.305" transform="translate(47.972)" fill="#728e9b"/>
                <rect class="a" width="13.222" height="51.543999" transform="translate(47.972,17.629)" fill="#728e9b"/>
            </g>
            <g transform="translate(125.173)">
                <path class="a" d="M 224.222,73.517 A 25.882,25.882 0 0 1 198.34,47.634 c 0,-12.3 9.641,-24.1 16.236,-32.707 a 96.88,96.88 0 0 0 9.378,-14.759 0.3,0.3 0 0 1 0.538,0 96.853,96.853 0 0 0 9.379,14.76 c 6.593,8.607 16.237,20.4 16.237,32.707 h -15.795 a 0.608,0.608 0 0 0 -0.608,0.608 v 8.876 h -8.874 a 0.608,0.608 0 0 0 -0.608,0.608 v 15.79 z" transform="translate(-198.34)" fill="#728e9b"/>
                <path class="a" d="m 249.991,100.636 v -8.451 h -7.846 a 0.608,0.608 0 0 0 -0.608,0.608 v 7.844 z" transform="translate(-213.993,-33.403)" fill="#728e9b"/>
                <path class="a" d="m 241.538,115.337 a 25.24,25.24 0 0 0 8.453,-1.625 v -4.257 h -7.846 a 0.608,0.608 0 0 0 -0.608,0.608 z" transform="translate(-213.993,-39.661)" fill="#728e9b"/>
                <path class="a" d="m 264.859,85.762 v -8.451 h -7.844 a 0.608,0.608 0 0 0 -0.608,0.608 v 7.843 h 8.451 z" transform="translate(-219.381,-28.013)" fill="#728e9b"/>
                <path class="a" d="m 266.745,102.524 0.01,-0.01 a 1.774,1.774 0 0 0 0.508,-1.254 v -6.679 h -8.453 v 8.453 h 6.678 a 1.774,1.774 0 0 0 1.257,-0.51 z" transform="translate(-220.251,-34.271)" fill="#728e9b"/>
                <path class="a" d="m 259.711,116.6 a 25.274,25.274 0 0 0 6.249,-3.841 h -6.249 z" transform="translate(-220.578,-40.856)" fill="#728e9b"/>
                <path class="a" d="m 277.934,85.762 a 25.17,25.17 0 0 0 1.627,-8.451 h -5.88 v 8.451 z" transform="translate(-225.639,-28.013)" fill="#728e9b"/>
                <path class="a" d="m 276.979,101.731 a 25.244,25.244 0 0 0 3.839,-6.25 h -3.839 z" transform="translate(-226.835,-34.597)" fill="#728e9b"/>
                <path class="a" d="m 276.979,101.731 a 25.244,25.244 0 0 0 3.839,-6.25 h -3.839 z" transform="translate(-226.835,-34.597)" fill="#728e9b"/>
            </g>
        </g>
        <g transform="translate(0,3.022)">
            <g transform="translate(0,1.629)">
                <path class="b" d="m 4.626,7.57 2.382,9 H 5.117 l -0.416,-1.9 h -2.4 l -0.416,1.9 H 0 l 2.382,-9 z M 4.387,13.179 3.517,9.133 H 3.492 l -0.87,4.046 z" transform="translate(0,-7.394)" fill="#b9c6cd"/>
                <path class="b" d="m 15.808,7.57 a 2.617,2.617 0 0 1 1.166,0.233 2.125,2.125 0 0 1 0.763,0.612 2.382,2.382 0 0 1 0.416,0.863 3.914,3.914 0 0 1 0.126,0.99 3.237,3.237 0 0 1 -0.208,1.21 2.19,2.19 0 0 1 -0.58,0.844 2.425,2.425 0 0 1 -0.9,0.492 3.964,3.964 0 0 1 -1.173,0.163 h -0.971 v 3.593 h -1.816 v -9 z m -0.555,4.071 a 1.2,1.2 0 0 0 0.876,-0.328 1.377,1.377 0 0 0 0.334,-1.021 1.6,1.6 0 0 0 -0.289,-1.034 1.189,1.189 0 0 0 -0.97,-0.353 h -0.756 v 2.735 z" transform="translate(-4.577,-7.394)" fill="#b9c6cd"/>
                <path class="b" d="m 25.9,7.57 2.382,9 h -1.893 l -0.416,-1.9 h -2.4 l -0.416,1.9 h -1.885 l 2.382,-9 z m -0.239,5.609 -0.87,-4.046 h -0.025 l -0.87,4.046 z" transform="translate(-7.708,-7.394)" fill="#b9c6cd"/>
                <path class="b" d="M 37.132,9.078 A 0.872,0.872 0 0 0 36.281,8.63 0.851,0.851 0 0 0 35.72,8.813 1.212,1.212 0 0 0 35.373,9.405 5.052,5.052 0 0 0 35.196,10.476 q -0.051,0.662 -0.05,1.62 a 15.647,15.647 0 0 0 0.069,1.652 3.643,3.643 0 0 0 0.214,0.977 0.9,0.9 0 0 0 0.365,0.466 1.053,1.053 0 0 0 0.511,0.12 1.221,1.221 0 0 0 0.448,-0.082 0.76,0.76 0 0 0 0.359,-0.328 2.143,2.143 0 0 0 0.24,-0.693 6.334,6.334 0 0 0 0.089,-1.178 h 1.815 a 8.1,8.1 0 0 1 -0.114,1.386 3.144,3.144 0 0 1 -0.422,1.147 2.1,2.1 0 0 1 -0.87,0.769 3.294,3.294 0 0 1 -1.456,0.277 3.424,3.424 0 0 1 -1.626,-0.328 2.21,2.21 0 0 1 -0.927,-0.946 4.163,4.163 0 0 1 -0.416,-1.475 17.308,17.308 0 0 1 -0.094,-1.891 17.362,17.362 0 0 1 0.094,-1.884 4.18,4.18 0 0 1 0.416,-1.481 2.324,2.324 0 0 1 0.927,-0.964 3.272,3.272 0 0 1 1.626,-0.347 3.143,3.143 0 0 1 1.532,0.315 2.145,2.145 0 0 1 0.839,0.8 2.776,2.776 0 0 1 0.347,1.046 8.668,8.668 0 0 1 0.07,1.052 H 37.366 A 3.279,3.279 0 0 0 37.132,9.078 Z" transform="translate(-12.078,-7.294)" fill="#b9c6cd"/>
                <path class="b" d="m 46.709,7.57 v 3.441 h 2.118 V 7.57 h 1.815 v 9 h -1.815 v -4 h -2.118 v 4 h -1.815 v -9 z" transform="translate(-16.267,-7.394)" fill="#b9c6cd"/>
                <path class="b" d="m 61.567,9.058 h -3.215 v 2.118 h 3.025 v 1.487 h -3.025 v 2.42 h 3.34 v 1.487 h -5.155 v -9 h 5.029 v 1.488 z" transform="translate(-20.486,-7.394)" fill="#b9c6cd"/>
            </g>
            <g transform="translate(68.91)">
                <path class="b" d="m 108.068,31.949 v -9.006 h 6.706 V 17.1 a 15.765,15.765 0 0 1 0.958,-5.844 9.221,9.221 0 0 1 2.73,-3.832 10.847,10.847 0 0 1 4.359,-2.06 24.587,24.587 0 0 1 5.748,-0.622 q 3.543,0 7.089,0.287 v 9.389 a 7.3,7.3 0 0 0 -1.341,-0.1 h -1.246 a 6.212,6.212 0 0 0 -3.928,0.958 3.9,3.9 0 0 0 -1.15,3.161 v 4.5 h 7.665 v 9.007 h -7.665 v 42.542 h -13.22 V 31.949 Z" transform="translate(-108.068,-4.74)" fill="#b9c6cd"/>
                <rect class="b" width="13.221" height="11.305" transform="translate(35.451,0.575)" fill="#b9c6cd"/>
                <rect class="b" width="13.221" height="51.543999" transform="translate(35.451,18.203)" fill="#b9c6cd"/>
            </g>
            <g transform="translate(128.296,9.186)">
                <path class="b" d="m 226.53,19.472 c -0.478,0.667 -0.948,1.339 -1.428,2 -1.516,2.092 -3.113,4.123 -4.676,6.18 q 0.918,0.127 1.843,0.282 c 1.3,-2.183 2.632,-4.352 3.881,-6.567 0.35,-0.62 0.693,-1.246 1.039,-1.87 0.274,-0.489 -0.362,-0.44 -0.659,-0.025 z" transform="translate(-208.167,-19.146)" fill="#b9c6cd"/>
                <path class="b" d="m 213.392,37.147 c 0.23,-0.4 0.468,-0.8 0.7,-1.207 -0.7,-0.136 -1.4,-0.262 -2.1,-0.374 h -0.007 a 86.66,86.66 0 0 0 -6.06,9.3 c -3.254,5.9 -5.511,12.495 -4.474,19.3 a 24.215,24.215 0 0 0 8.069,14.569 23.849,23.849 0 0 0 2.93,2.165 0.311,0.311 0 0 0 0.381,-0.487 25.957,25.957 0 0 1 -7,-11.805 c -1.937,-7.144 -0.327,-14.465 2.431,-21.165 a 91.737,91.737 0 0 1 5.13,-10.296 z" transform="translate(-201.2,-25.096)" fill="#b9c6cd"/>
            </g>
        </g>
    </g>
</svg> 