<svg xmlns="http://www.w3.org/2000/svg" width="120" height="48" fill="none"><g fill="#C7154A" clip-path="url(#logo_svg__a)"><path d="M42.99 18.448c1.032-.553 2.21-.831 3.535-.831 1.542 0 2.938.38 4.187 1.14 1.248.76 2.236 1.841 2.965 3.241.728 1.402 1.091 3.025 1.091 4.872s-.363 3.482-1.091 4.903c-.729 1.424-1.717 2.525-2.965 3.307-1.25.782-2.645 1.173-4.187 1.173-1.325 0-2.493-.271-3.503-.815-1.01-.543-1.83-1.226-2.46-2.053v14.612H36V17.912h4.562v2.606c.586-.825 1.395-1.515 2.426-2.068l.002-.002m6.452 5.605c-.445-.793-1.032-1.395-1.76-1.808a4.72 4.72 0 0 0-2.362-.618c-.847 0-1.602.211-2.33.635-.728.423-1.315 1.038-1.76 1.841-.445.804-.668 1.749-.668 2.835 0 1.087.221 2.032.668 2.835.445.804 1.032 1.417 1.76 1.842a4.557 4.557 0 0 0 2.33.635 4.57 4.57 0 0 0 2.362-.652c.728-.435 1.313-1.053 1.76-1.856.445-.804.668-1.76.668-2.867s-.223-2.025-.668-2.818v-.004M62.947 17.912v18.051h-4.562V17.912h4.562m.551-6.079a2.833 2.833 0 1 1-5.666 0 2.833 2.833 0 0 1 5.666 0M82.954 19.687c1.325 1.358 1.988 3.253 1.988 5.685v10.59H80.38v-9.97c0-1.434-.358-2.537-1.075-3.307-.717-.772-1.695-1.157-2.933-1.157-1.239 0-2.254.387-2.982 1.157-.728.772-1.091 1.873-1.091 3.307v9.97h-4.562V17.91h4.562v2.248a6.322 6.322 0 0 1 2.33-1.841c.944-.445 1.981-.669 3.111-.669 2.15 0 3.889.68 5.214 2.037v.002M92.892 35.098c-1.39-.77-2.482-1.861-3.275-3.275-.794-1.411-1.19-3.041-1.19-4.888s.406-3.475 1.221-4.888a8.502 8.502 0 0 1 3.34-3.275c1.412-.772 2.987-1.157 4.725-1.157 1.739 0 3.312.387 4.725 1.157a8.5 8.5 0 0 1 3.34 3.275c.815 1.411 1.222 3.041 1.222 4.888s-.418 3.475-1.255 4.888a8.708 8.708 0 0 1-3.388 3.275c-1.424.772-3.014 1.157-4.774 1.157-1.76 0-3.301-.385-4.691-1.157m7.021-3.421c.729-.402 1.309-1.005 1.744-1.809.435-.803.651-1.781.651-2.933 0-1.715-.451-3.035-1.351-3.958-.902-.924-2.004-1.385-3.307-1.385s-2.395.461-3.275 1.385c-.88.923-1.32 2.243-1.32 3.958 0 1.715.428 3.035 1.287 3.958.858.924 1.938 1.385 3.241 1.385.825 0 1.602-.2 2.33-.603v.002M115.96 21.658v8.734c0 .608.147 1.048.44 1.32.293.271.787.406 1.482.406H120v3.845h-2.867c-3.845 0-5.766-1.868-5.766-5.605v-8.7h-2.15v-3.746h2.15V13l4.595-1v5.912h4.04v3.746h-4.042M20.03 46.757l-5.538-1.385A1.97 1.97 0 0 1 13 43.46v-5.462c0-.841.349-1.601.907-2.146a12.212 12.212 0 0 0 6.975-3.644c2.602-2.731 3.627-6.578 2.882-10.251L21 9h-4V4a1 1 0 0 0-2 0v7a1 1 0 0 1-2 0v-1a1 1 0 0 0-2 0v6.758a4.489 4.489 0 0 1 2.694-.755c2.278.095 4.156 1.934 4.297 4.21a4.501 4.501 0 0 1-6.992 4.029V29a1 1 0 0 1-2 0V7a1 1 0 0 0-2 0v2h-4L.237 21.957c-.745 3.675.279 7.52 2.882 10.251a12.202 12.202 0 0 0 6.975 3.644c.558.545.907 1.305.907 2.146V43.4c0 .938-.639 1.757-1.55 1.985l-5.48 1.37c-.57.143-.97.655-.97 1.243h18c0-.588-.4-1.1-.97-1.243v.002"></path><path d="M13.5 23a2.5 2.5 0 1 0 0-5 2.5 2.5 0 0 0 0 5M8 5a1 1 0 1 0 0-2 1 1 0 0 0 0 2M12 8a1 1 0 1 0 0-2 1 1 0 0 0 0 2M16 2a1 1 0 1 0 0-2 1 1 0 0 0 0 2"></path></g><defs><clipPath id="logo_svg__a"><path fill="#fff" d="M0 0h120v48H0z"></path></clipPath></defs></svg>